<svg id="Layer_1" data-name="Layer 1" xmlns="http://www.w3.org/2000/svg" viewBox="0 0 200 200"><defs><style>.cls-1{fill:#4bc5f5;}.cls-2{fill:#e8eaf6;}.cls-3{fill:#fff;}.cls-4{fill:#0d57a1;}</style></defs><title>icons-blue-home2</title><circle class="cls-1" cx="100" cy="100" r="100"/><path class="cls-2" d="M100,41.82c-32.13,0-58.18,22.79-58.18,50.91a46.69,46.69,0,0,0,11.64,30.55L41.82,158.18,78.27,140A65.31,65.31,0,0,0,100,143.64c32.13,0,58.18-22.79,58.18-50.91S132.13,41.82,100,41.82Z"/><path class="cls-3" d="M142,57.52c-10.59-9.67-25.49-15.7-42-15.7-32.13,0-58.18,22.79-58.18,50.91a46.69,46.69,0,0,0,11.64,30.55l-11.4,34.2Z"/><path class="cls-4" d="M101.58,73.66c-7.31-12.79-29.23-8.22-29.23,14.62.45,20.79,29.23,36.54,29.23,36.54s28.78-15.75,29.23-36.54C130.81,65.44,108.88,60.87,101.58,73.66Z"/></svg>