<svg id="Layer_1" data-name="Layer 1" xmlns="http://www.w3.org/2000/svg" viewBox="0 0 200 200"><defs><style>.cls-1{fill:#009ddc;}.cls-2{fill:#e8eaf6;}.cls-3{fill:#fff;}.cls-4{fill:#0d57a1;}</style></defs><title>icons-blue-data</title><circle class="cls-1" cx="100" cy="100" r="100"/><path class="cls-2" d="M100,41.82c-32.13,0-58.18,22.79-58.18,50.91a46.69,46.69,0,0,0,11.64,30.55L41.82,158.18,78.27,140A65.31,65.31,0,0,0,100,143.64c32.13,0,58.18-22.79,58.18-50.91S132.13,41.82,100,41.82Z"/><path class="cls-3" d="M142,57.52c-10.59-9.67-25.49-15.7-42-15.7-32.13,0-58.18,22.79-58.18,50.91a46.69,46.69,0,0,0,11.64,30.55l-11.4,34.2Z"/><path class="cls-4" d="M64.1,83h5.1l9.24,16.23V83H83v23.28H78.11L68.63,89.74v16.52H64.1Z"/><path class="cls-4" d="M105.4,87.1H93.08V92h11.31v4H93.08v6H106v4.19H88.33V83H105.4Z"/><path class="cls-4" d="M113.57,83l3.07,13.33.67,3.71.67-3.63L120.62,83h5.13l2.77,13.33.71,3.71.72-3.57L133,83h5l-6.55,23.28h-4.66L124,92.65l-.82-4.5-.82,4.5-2.81,13.61H115L108.41,83Z"/></svg>