<svg id="Layer_1" data-name="Layer 1" xmlns="http://www.w3.org/2000/svg" viewBox="0 0 200 200"><defs><style>.cls-1{fill:#009ddc;}.cls-2{fill:#fff;}.cls-3{fill:#fdd835;}.cls-4{fill:#733725;}.cls-5{fill:#e0e0e0;}.cls-6{fill:#b28583;}.cls-7{fill:#ffcdd2;}.cls-8{fill:#ef5350;}.cls-9{fill:#d32f2f;}.cls-10{fill:#d1a39d;}.cls-11{fill:#edc8c3;}</style></defs><title>icons-color-home2</title><circle class="cls-1" cx="100" cy="100" r="100"/><path class="cls-2" d="M101.46,66.13c0-14.51-14.37-26.26-32.1-26.26s-32.1,11.76-32.1,26.26S51.89,92.65,69.93,92.38L81,99.69,80,90.9C92.5,87.31,101.46,77.58,101.46,66.13Z"/><circle class="cls-3" cx="69.89" cy="65.24" r="18.13"/><circle class="cls-4" cx="64.45" cy="59.8" r="1.81"/><circle class="cls-4" cx="75.33" cy="59.8" r="1.81"/><path class="cls-4" d="M69.89,77a11.82,11.82,0,0,1-10.21-5.89.91.91,0,0,1,1.57-.91,10,10,0,0,0,17.27,0,.91.91,0,0,1,1.57.91A11.83,11.83,0,0,1,69.89,77Z"/><path d="M150.69,144.27a10,10,0,0,0-6.49-6l-20.4-4.87L115,134.64l-8.79-1.26-20.4,4.87a10,10,0,0,0-6.49,6L74.8,166h80.4Z"/><path class="cls-5" d="M129.81,138.28l.26-.53v-2.86l-2.51-.6v2.87s-2.51,5-12.56,5-12.56-5-12.56-5v-2.87l-2.51.6v2.86l.26.53c.33.66,3.53,6.41,14.81,6.41S129.48,138.94,129.81,138.28Z"/><path class="cls-6" d="M115,133.39a23.18,23.18,0,0,1-12.56-9.51v13.28s2.51,5,12.56,5,12.56-5,12.56-5V123.88A23.18,23.18,0,0,1,115,133.39Z"/><path class="cls-7" d="M102.44,123.88v13.28s2.51,5,12.56,5v-8.79A23.18,23.18,0,0,1,102.44,123.88Z"/><path class="cls-8" d="M94.9,112.5c.63,24.73,7.58,21.57,9.11,31.48.78,5.1-2.83,10.32-7.85,7,1.74,7,19.63,4.81,19.63-10.27,0-11.31-15.86-14.84-15.86-23.17v-5Z"/><path class="cls-9" d="M134.37,113.65a5.07,5.07,0,0,1-3.27,2.05,26.26,26.26,0,0,1-6.06,11.42v6.56l15.54,3.71C137.63,133.44,134.45,126.26,134.37,113.65Z"/><path class="cls-10" d="M134.84,103.53l0,.23c-8.69,0-15.06-6.79-15-18.7-.91,10.07-6.73,18.75-25,18.75v-.07A3,3,0,0,0,93.64,106c0,3.88,1.09,9,5.25,9.68,3.07,11.43,10.32,15.75,16.11,17.68,5.78-1.93,13-6.25,16.11-17.68,4.16-.72,5.25-5.79,5.25-9.68A3,3,0,0,0,134.84,103.53Z"/><path class="cls-11" d="M94.84,103.8v-.07A3,3,0,0,0,93.64,106c0,3.88,1.09,9,5.25,9.68,3.07,11.43,10.32,15.75,16.11,17.68V97.05C111.24,101.14,104.95,103.8,94.84,103.8Z"/><path class="cls-9" d="M120,82c-20.1-5-25.49,4.33-25.13,21.83,18.26,0,24.08-8.68,25-18.75-.06,11.91,6.31,18.7,15,18.7C135.87,90.46,134.51,79.46,120,82Z"/><path class="cls-8" d="M115,81c-16-2.32-20.5,6.86-20.16,22.82,10.11,0,16.4-2.67,20.16-6.75Z"/></svg>