<svg id="Layer_1" data-name="Layer 1" xmlns="http://www.w3.org/2000/svg" viewBox="0 0 200 200"><defs><style>.cls-1{fill:#f44336;}.cls-2{fill:#fff;}.cls-3{fill:#cfd0d1;}.cls-4{fill:#f5b1a9;}.cls-5{fill:#ef5350;}.cls-6{fill:#824e3e;}.cls-7{fill:#a16d5a;}.cls-8{fill:#bd8b7b;}.cls-9{fill:#fdd835;}.cls-10{fill:#fbc02d;}</style></defs><title>icons-color-home2</title><circle class="cls-1" cx="100" cy="100" r="100"/><path d="M133.62,51.62,137,50a4.36,4.36,0,0,1,5.81,2l0,.09a4.36,4.36,0,0,1-2,5.81l-3.49,1.65L116.8,70.3l-1.86,18.33,5.87,29.77H110.25l-9.4-22.73-9,22.73H81.28l5.49-29.77L85.11,70.32,60.92,58a4.36,4.36,0,0,1-2-5.81l0-.09a4.36,4.36,0,0,1,5.81-2L88.53,60.46h24.65Z"/><path class="cls-2" d="M130.5,136.82V122.09a3.68,3.68,0,0,0-3.68-3.68H75.27a3.68,3.68,0,0,0-3.68,3.68v14.73H45.82a3.68,3.68,0,0,0-3.68,3.68v18.41H160V140.5a3.68,3.68,0,0,0-3.68-3.68Z"/><path class="cls-3" d="M71.59,136.82H45.82a3.68,3.68,0,0,0-3.68,3.68v18.41H71.59Z"/><path class="cls-3" d="M130.5,136.82h25.77A3.68,3.68,0,0,1,160,140.5v18.41H130.5Z"/><path class="cls-4" d="M64.72,50a4.36,4.36,0,0,0-5.81,2l0,.09a4.36,4.36,0,0,0,2,5.81l3.13,1.6,3.64-8.23Z"/><path class="cls-4" d="M138.05,59.26l2.74-1.3a4.36,4.36,0,0,0,2-5.81l0-.09A4.36,4.36,0,0,0,137,50l-3,1.45Z"/><path class="cls-5" d="M99.81,130.19a20.78,20.78,0,0,1-3.36.75,2.77,2.77,0,0,1-.66-5.47c3-.86,5.42-1.74,7.08-1.74H103a3.14,3.14,0,0,1,3.15,3.15v23.36a3.15,3.15,0,1,1-6.29,0Z"/><path class="cls-6" d="M100.58,59.44a10.19,10.19,0,0,1-5.52-4.18v8.55l5,5.52h1.1l5-5.52V55.26A10.19,10.19,0,0,1,100.58,59.44Z"/><path class="cls-7" d="M95.06,55.26v8.55l5,5.52h.55V59.44A10.19,10.19,0,0,1,95.06,55.26Z"/><path class="cls-7" d="M108.86,46.19h-.55c0-5-.57-9.37-7.73-9.37s-7.72,4.4-7.73,9.37H92.3a1.26,1.26,0,0,0-1.1,1.23c0,1.71.48,3.94,2.31,4.25a10.43,10.43,0,0,0,7.08,7.77,10.43,10.43,0,0,0,7.08-7.77c1.83-.32,2.31-2.55,2.31-4.25A1.26,1.26,0,0,0,108.86,46.19Z"/><path class="cls-8" d="M92.85,46.18H92.3a1.26,1.26,0,0,0-1.1,1.23c0,1.71.48,3.94,2.31,4.25a10.43,10.43,0,0,0,7.08,7.77V36.8C93.42,36.8,92.86,41.2,92.85,46.18Z"/><path class="cls-9" d="M100.58,65.8l-.15-.1c-.23-.15-5.64-3.74-5.64-6.3a.28.28,0,0,1,.55,0c0,1.82,3.65,4.66,5.24,5.74,1.6-1.08,5.24-3.92,5.24-5.74a.28.28,0,1,1,.55,0c0,2.56-5.41,6.15-5.64,6.3Z"/><path class="cls-10" d="M101.69,66.57a1.1,1.1,0,0,1-2.21,0c0-.61.49-1.84,1.1-1.84S101.69,66,101.69,66.57Z"/><polygon class="cls-2" points="95.06 56.63 96.17 62.71 100.58 69.33 99.48 69.33 92.3 64.92 94.51 62.16 89.54 61.05 95.06 56.63"/><polygon class="cls-2" points="106.11 56.63 105 62.71 100.58 69.33 101.69 69.33 108.86 64.92 106.66 62.16 111.63 61.05 106.11 56.63"/><path d="M112.49,43a2.75,2.75,0,0,0-2-5,2.74,2.74,0,0,0-4.13-1.88,2.72,2.72,0,0,0-3.74-1.17h0a2.74,2.74,0,0,0-4,0h0a2.72,2.72,0,0,0-3.74,1.17,2.74,2.74,0,0,0-4.13,1.88,2.75,2.75,0,0,0-2,5,2.75,2.75,0,0,0,1,5.35A2.47,2.47,0,0,0,92,51.67c2.21,0,1.93-3.31,1.93-5.52,4.32.18,6.62-4.23,6.62-4.14,0-.09,2.31,4.32,6.63,4.14,0,2.21-.28,5.52,1.93,5.52a2.47,2.47,0,0,0,2.33-3.33A2.75,2.75,0,0,0,112.49,43Z"/></svg>