<svg id="Layer_1" data-name="Layer 1" xmlns="http://www.w3.org/2000/svg" viewBox="0 0 200 200"><defs><style>.cls-1{fill:#4bc5f5;}.cls-2{fill:#e8eaf6;}.cls-3{fill:#fff;}.cls-4{fill:#1e88e5;}.cls-5{fill:#c5cae9;}</style></defs><title>icons-blue-home2</title><circle class="cls-1" cx="100" cy="100" r="100"/><path class="cls-2" d="M147.82,120.13,132.73,100l15.1-20.13a7.27,7.27,0,1,0-5.75-9H114.55l-8.74-17.48a7.27,7.27,0,1,0-11.61,0L85.45,70.91H57.92a7.26,7.26,0,1,0-5.75,9L67.27,100l-15.1,20.13a7.27,7.27,0,1,0,5.75,9H85.45l8.74,17.48a7.27,7.27,0,1,0,11.61,0l8.74-17.48h27.53a7.26,7.26,0,1,0,5.75-9Z"/><path class="cls-3" d="M114.55,70.91l-8.74-17.48a7.27,7.27,0,1,0-11.61,0L85.45,70.91H57.92a7.26,7.26,0,1,0-5.75,9L67.27,100l-15.1,20.13a7.27,7.27,0,1,0,5.75,9H70.87l58.18-58.18Z"/><circle class="cls-4" cx="100" cy="100" r="25.45"/><path class="cls-5" d="M100,74.55A25.45,25.45,0,0,0,82,118l36-36A25.38,25.38,0,0,0,100,74.55Z"/><circle class="cls-5" cx="100" cy="100" r="20"/><path class="cls-2" d="M100,80a20,20,0,0,0-14.16,34.12l28.28-28.28A19.94,19.94,0,0,0,100,80Z"/></svg>