<svg id="Layer_1" data-name="Layer 1" xmlns="http://www.w3.org/2000/svg" viewBox="0 0 200 200"><defs><style>.cls-1{fill:#4bc5f5;}.cls-2{fill:#1a3b7e;}.cls-3{fill:#e8eaf6;}.cls-4{fill:#fff;}.cls-5{fill:#2962ff;}.cls-6{fill:#c5cae9;}.cls-7{fill:#0d57a1;}.cls-8{fill:#2979ff;}</style></defs><title>icons-blue-home2</title><circle class="cls-1" cx="100" cy="100" r="100"/><path class="cls-2" d="M154.82,63.69a1.82,1.82,0,0,0-1.18-1.7l-53-19.88a1.82,1.82,0,0,0-1.28,0L46.36,62a1.82,1.82,0,0,0-1.18,1.7h0a1.91,1.91,0,0,0,1.18,1.7L70.91,74.6V87.45C75.54,93.94,87.72,97.58,100,97.92c12.28-.34,24.46-4,29.09-10.47V74.6l18.18-6.82V87.45h3.64v-21l2.73-1A1.84,1.84,0,0,0,154.82,63.69Z"/><path class="cls-3" d="M158.07,129.27c-.54,4.26-2.93,12.13-7.16,16.36L100,138.36l-50.91,7.27c-4.24-4.24-6.62-12.11-7.16-16.36a15.21,15.21,0,0,1,0-3.64c.54-4.25,2.93-12.13,7.16-16.36L100,116.55l50.91-7.27c4.24,4.24,6.62,12.11,7.16,16.36A15.21,15.21,0,0,1,158.07,129.27Z"/><path class="cls-4" d="M49.09,109.27c-4.24,4.24-6.62,12.11-7.16,16.36H158.07c-.54-4.25-2.93-12.13-7.16-16.36L100,116.55Z"/><path class="cls-2" d="M105.89,138a6.35,6.35,0,0,1-11.78,0,6.4,6.4,0,0,1-2.42.49l-2.6,17.84L100,147.45l10.91,8.86-3.51-17.87A6.37,6.37,0,0,1,105.89,138Z"/><path class="cls-5" d="M118.18,123.82a6.36,6.36,0,0,0-4-5.89,6.35,6.35,0,0,0-8.33-8.33,6.35,6.35,0,0,0-11.78,0,6.35,6.35,0,0,0-8.33,8.33,6.35,6.35,0,0,0,0,11.78A6.35,6.35,0,0,0,94.11,138a6.35,6.35,0,0,0,11.78,0,6.35,6.35,0,0,0,8.33-8.33A6.36,6.36,0,0,0,118.18,123.82Z"/><rect class="cls-6" x="147.27" y="87.33" width="3.64" height="3.64"/><polygon class="cls-2" points="154.54 103.82 150.91 91.09 147.27 91.09 143.64 103.82 154.54 103.82"/><circle class="cls-3" cx="100" cy="123.82" r="10.78"/><rect class="cls-3" x="147.27" y="87.33" width="1.82" height="3.64"/><polygon class="cls-7" points="149.09 91.09 147.27 91.09 143.64 103.82 149.09 103.82 149.09 91.09"/><path class="cls-8" d="M105.89,109.6a6.35,6.35,0,0,0-11.78,0,6.35,6.35,0,0,0-8.33,8.33,6.35,6.35,0,0,0,0,11.78,6.36,6.36,0,0,0,1.33,6.94l25.71-25.71A6.36,6.36,0,0,0,105.89,109.6Z"/><path class="cls-4" d="M100,113a10.78,10.78,0,0,0-7.65,18.37l15.24-15.24A10.75,10.75,0,0,0,100,113Z"/><path class="cls-7" d="M70.91,74.6V87.45C75.54,93.94,87.72,97.58,100,97.92V85.39a1.82,1.82,0,0,1-.64-.12Z"/><path class="cls-7" d="M99.36,42.12,46.36,62a1.82,1.82,0,0,0,0,3.41l53,19.88a1.82,1.82,0,0,0,.64.12V42A1.82,1.82,0,0,0,99.36,42.12Z"/></svg>